<svg width="24" height="24" viewBox="0 0 24 24" fill="none" xmlns="http://www.w3.org/2000/svg">
<path d="M3 18C3 15.2386 5.23858 13 8 13H12C14.7614 13 17 15.2386 17 18V23H3V18Z" stroke="#67CDFF" stroke-width="2"/>
<path d="M15 6C15 8.76142 12.7614 11 10 11C7.23858 11 5 8.76142 5 6C5 3.23858 7.23858 1 10 1C12.7614 1 15 3.23858 15 6Z" stroke="#67CDFF" stroke-width="2"/>
<mask id="path-3-inside-1" fill="white">
<path fill-rule="evenodd" clip-rule="evenodd" d="M22.2635 11.9497C22.654 12.3403 22.654 12.9734 22.2635 13.364L13.7782 21.8492L12.364 23.2635C11.9734 23.654 11.3403 23.654 10.9498 23.2635L9.53555 21.8492L6.70712 19.0208C6.31659 18.6303 6.3166 17.9971 6.70712 17.6066L8.12133 16.1924C8.51186 15.8019 9.14502 15.8019 9.53555 16.1924L11.6569 18.3137L19.435 10.5355C19.8256 10.145 20.4587 10.145 20.8493 10.5355L22.2635 11.9497Z"/>
</mask>
<path d="M11.6569 18.3137L10.2427 19.7279L11.6569 21.1421L13.0711 19.7279L11.6569 18.3137ZM23.6777 14.7782C24.8493 13.6066 24.8493 11.7071 23.6777 10.5355L20.8493 13.364C20.4587 12.9734 20.4587 12.3403 20.8493 11.9497L23.6777 14.7782ZM15.1924 23.2635L23.6777 14.7782L20.8493 11.9497L12.364 20.435L15.1924 23.2635ZM13.7782 24.6777L15.1924 23.2635L12.364 20.435L10.9498 21.8492L13.7782 24.6777ZM9.53555 24.6777C10.7071 25.8492 12.6066 25.8492 13.7782 24.6777L10.9498 21.8492C11.3403 21.4587 11.9734 21.4587 12.364 21.8492L9.53555 24.6777ZM8.12133 23.2635L9.53555 24.6777L12.364 21.8492L10.9498 20.435L8.12133 23.2635ZM5.29291 20.435L8.12133 23.2635L10.9498 20.435L8.12133 17.6066L5.29291 20.435ZM5.29291 16.1924C4.12133 17.364 4.12133 19.2635 5.29291 20.435L8.12133 17.6066C8.51186 17.9971 8.51186 18.6303 8.12133 19.0208L5.29291 16.1924ZM6.70712 14.7782L5.29291 16.1924L8.12133 19.0208L9.53555 17.6066L6.70712 14.7782ZM10.9498 14.7782C9.77819 13.6066 7.87869 13.6066 6.70712 14.7782L9.53555 17.6066C9.14502 17.9971 8.51186 17.9971 8.12133 17.6066L10.9498 14.7782ZM13.0711 16.8995L10.9498 14.7782L8.12133 17.6066L10.2427 19.7279L13.0711 16.8995ZM18.0208 9.12132L10.2427 16.8995L13.0711 19.7279L20.8493 11.9497L18.0208 9.12132ZM22.2635 9.12132C21.0919 7.94975 19.1924 7.94975 18.0208 9.12132L20.8493 11.9497C20.4587 12.3403 19.8256 12.3403 19.435 11.9497L22.2635 9.12132ZM23.6777 10.5355L22.2635 9.12132L19.435 11.9497L20.8493 13.364L23.6777 10.5355Z" fill="#2693FF" mask="url(#path-3-inside-1)"/>
</svg>
