<svg width="64" height="64" viewBox="0 0 64 64" fill="none" xmlns="http://www.w3.org/2000/svg">
<path d="M24 21.3333C35.7821 21.3333 45.3333 17.7515 45.3333 13.3333C45.3333 8.91497 35.7821 5.33325 24 5.33325C12.2179 5.33325 2.66667 8.91497 2.66667 13.3333C2.66667 17.7515 12.2179 21.3333 24 21.3333Z" stroke="#67CDFF" stroke-width="5.33333"/>
<path d="M2.66684 24C2.66684 28.4183 12.2181 32 24.0002 32C35.7822 32 45.3335 28.4183 45.3335 24" stroke="#67CDFF" stroke-width="5.33333"/>
<path d="M2.66684 34.6667C2.66684 39.085 12.2181 42.6667 24.0002 42.6667C27.0023 42.6667 29.8597 42.4342 32.4511 42.0145" stroke="#67CDFF" stroke-width="5.33333"/>
<path d="M2.66684 13.3333V45.3333C2.66684 49.7515 12.2181 53.3332 24.0002 53.3332C27.454 53.3332 30.7162 53.0255 33.6023 52.479M45.3335 31.9999V13.3333" stroke="#67CDFF" stroke-width="5.33333"/>
<path fill-rule="evenodd" clip-rule="evenodd" d="M45.3335 29.3333C46.8063 29.3333 48.0002 30.5486 48.0002 32.0065L48.0007 32.2667C49.7029 32.6123 51.2873 33.2822 52.6867 34.2091L52.8713 34.0242C53.835 33.0605 55.3434 32.9784 56.3945 33.7963L56.6472 34.0195C57.6886 35.0609 57.6734 36.7646 56.6425 37.7954L56.4577 37.9801C57.3845 39.3794 58.0544 40.9639 58.4 42.6661L58.6602 42.6666C60.0312 42.6666 61.1611 43.6872 61.3155 45.0204L61.3335 45.3333C61.3335 46.806 60.1181 47.9999 58.6602 47.9999L58.3995 48.0031C58.0537 49.7043 57.3841 51.2878 56.4577 52.6864L56.6425 52.8711C57.6062 53.8347 57.6883 55.3431 56.8704 56.3943L56.6472 56.647C55.6058 57.6884 53.9022 57.6732 52.8713 56.6423L52.6867 56.4574C51.2873 57.3843 49.7029 58.0542 48.0007 58.3998L48.0002 58.66C48.0002 60.0309 46.9796 61.1608 45.6464 61.3153L45.3335 61.3333C43.8607 61.3333 42.6668 60.1179 42.6668 58.66L42.6637 58.3992C40.9625 58.0535 39.379 57.3838 37.9803 56.4574L37.7957 56.6423C36.832 57.606 35.3236 57.6881 34.2725 56.8702L34.0198 56.647C32.9784 55.6056 32.9936 53.9019 34.0245 52.8711L34.2093 52.6864C33.2829 51.2878 32.6133 49.7043 32.2675 48.0031L32.0068 47.9999C30.6358 47.9999 29.5059 46.9793 29.3515 45.6461L29.3335 45.3333C29.3335 43.8605 30.5489 42.6666 32.0068 42.6666L32.267 42.6661C32.6126 40.9639 33.2825 39.3794 34.2093 37.9801L34.0245 37.7954C33.0608 36.8318 32.9787 35.3234 33.7966 34.2722L34.0198 34.0195C35.0612 32.9781 36.7648 32.9933 37.7957 34.0242L37.9803 34.2091C39.379 33.2827 40.9625 32.613 42.6637 32.2673L42.6668 32.0065C42.6668 30.6356 43.6874 29.5057 45.0206 29.3512L45.3335 29.3333Z" stroke="#2693FF" stroke-width="5.33333"/>
<path d="M45.3333 50.6667C48.2789 50.6667 50.6667 48.2789 50.6667 45.3333C50.6667 42.3878 48.2789 40 45.3333 40C42.3878 40 40 42.3878 40 45.3333C40 48.2789 42.3878 50.6667 45.3333 50.6667Z" stroke="#2693FF" stroke-width="5.33333"/>
</svg>
