<svg width="24" height="24" viewBox="0 0 24 24" fill="none" xmlns="http://www.w3.org/2000/svg">
<rect x="1" y="4" width="22" height="18" rx="3" stroke="#67CDFF" stroke-width="2"/>
<rect x="4" y="1" width="3" height="5" rx="1" fill="#2693FF"/>
<rect x="17" y="1" width="3" height="5" rx="1" fill="#2693FF"/>
<path d="M2.5 9H21.5" stroke="#67CDFF" stroke-width="2" stroke-linecap="square"/>
<rect x="4" y="12" width="4" height="3" rx="1" fill="#2693FF"/>
<rect x="10" y="12" width="4" height="3" rx="1" fill="#2693FF"/>
<path d="M16 13C16 12.4477 16.4477 12 17 12H19C19.5523 12 20 12.4477 20 13V14C20 14.5523 19.5523 15 19 15H17C16.4477 15 16 14.5523 16 14V13Z" fill="#2693FF"/>
<rect x="4" y="16" width="4" height="3" rx="1" fill="#2693FF"/>
<rect x="10" y="16" width="4" height="3" rx="1" fill="#2693FF"/>
<rect x="16" y="16" width="4" height="3" rx="1" fill="#2693FF"/>
</svg>
