<svg width="24" height="24" viewBox="0 0 24 24" fill="none" xmlns="http://www.w3.org/2000/svg">
<path d="M8 2C8 1.44772 8.44772 1 9 1H15C15.5523 1 16 1.44772 16 2V12C16 12.5523 15.5523 13 15 13H9C8.44772 13 8 12.5523 8 12V2Z" stroke="#67CDFF" stroke-width="2"/>
<rect x="8" y="13" width="8" height="3" rx="1" stroke="#67CDFF" stroke-width="2"/>
<path d="M3 9V9C4.10457 9 5 9.89543 5 11V14C5 15.1046 5.89543 16 7 16H17C18.1046 16 19 15.1046 19 14V11C19 9.89543 19.8954 9 21 9V9" stroke="#67CDFF" stroke-width="2" stroke-linecap="round"/>
<path d="M11.5 17.5H12.5V23C12.5 23.2761 12.2761 23.5 12 23.5C11.7239 23.5 11.5 23.2761 11.5 23V17.5Z" fill="#D8D8D8" stroke="#2693FF"/>
<path d="M8 23V22C8 20.8954 8.89543 20 10 20H14.0156C15.1202 20 16.0156 20.8954 16.0156 22V23" stroke="#2693FF" stroke-width="2" stroke-linecap="round"/>
</svg>
