<svg width="68" height="68" viewBox="0 0 68 68" fill="none" xmlns="http://www.w3.org/2000/svg">
<mask id="path-1-inside-1" fill="white">
<path fill-rule="evenodd" clip-rule="evenodd" d="M33.2538 44.6227L51.01 62.3789L62.3237 51.0652L44.5675 33.309L48.3387 29.5377L66.0949 47.294C68.1777 49.3768 68.1777 52.7536 66.0949 54.8364L54.7812 66.1502C52.6984 68.2329 49.3216 68.233 47.2388 66.1502L29.4825 48.3939L33.2538 44.6227ZM1.9046 20.8166C-0.178198 18.7339 -0.178199 15.357 1.9046 13.2742L13.2183 1.96047C15.3011 -0.122325 18.678 -0.122331 20.7608 1.96047L38.517 19.7167L34.7458 23.4879L16.9895 5.73171L5.67583 17.0454L23.4321 34.8016L19.6608 38.5729L1.9046 20.8166Z"/>
</mask>
<path d="M51.01 62.3789L47.2388 66.1502L51.01 69.9214L54.7812 66.1502L51.01 62.3789ZM33.2538 44.6227L37.025 40.8514L33.2538 37.0802L29.4825 40.8514L33.2538 44.6227ZM62.3237 51.0652L66.0949 54.8364L69.8662 51.0652L66.0949 47.294L62.3237 51.0652ZM44.5675 33.309L40.7962 29.5377L37.025 33.309L40.7962 37.0802L44.5675 33.309ZM48.3387 29.5377L52.1099 25.7665L48.3387 21.9953L44.5675 25.7665L48.3387 29.5377ZM29.4825 48.3939L25.7113 44.6227L21.94 48.3939L25.7113 52.1652L29.4825 48.3939ZM38.517 19.7167L42.2882 23.4879L46.0595 19.7167L42.2882 15.9455L38.517 19.7167ZM34.7458 23.4879L30.9745 27.2592L34.7458 31.0304L38.517 27.2592L34.7458 23.4879ZM16.9895 5.73171L20.7608 1.96047L16.9895 -1.81077L13.2183 1.96047L16.9895 5.73171ZM5.67583 17.0454L1.9046 13.2742L-1.86664 17.0454L1.9046 20.8166L5.67583 17.0454ZM23.4321 34.8016L27.2033 38.5729L30.9745 34.8016L27.2033 31.0304L23.4321 34.8016ZM19.6608 38.5729L15.8896 42.3441L19.6608 46.1154L23.4321 42.3441L19.6608 38.5729ZM54.7812 58.6077L37.025 40.8514L29.4825 48.3939L47.2388 66.1502L54.7812 58.6077ZM58.5525 47.294L47.2388 58.6077L54.7812 66.1502L66.0949 54.8364L58.5525 47.294ZM40.7962 37.0802L58.5525 54.8364L66.0949 47.294L48.3387 29.5377L40.7962 37.0802ZM44.5675 25.7665L40.7962 29.5377L48.3387 37.0802L52.1099 33.309L44.5675 25.7665ZM69.8662 43.5227L52.1099 25.7665L44.5675 33.309L62.3237 51.0652L69.8662 43.5227ZM69.8662 58.6077C74.0318 54.4421 74.0318 47.6883 69.8662 43.5227L62.3237 51.0652L62.3237 51.0652L69.8662 58.6077ZM58.5525 69.9214L69.8662 58.6077L62.3237 51.0652L51.01 62.3789L58.5525 69.9214ZM43.4675 69.9214C47.6331 74.087 54.3869 74.087 58.5525 69.9214L51.01 62.3789L51.01 62.3789L43.4675 69.9214ZM25.7113 52.1652L43.4675 69.9214L51.01 62.3789L33.2538 44.6227L25.7113 52.1652ZM29.4825 40.8514L25.7113 44.6227L33.2538 52.1652L37.025 48.3939L29.4825 40.8514ZM-1.86664 9.50294C-6.03223 13.6685 -6.03223 20.4223 -1.86664 24.5879L5.67583 17.0454L5.67583 17.0454L-1.86664 9.50294ZM9.44707 -1.81077L-1.86664 9.50294L5.67583 17.0454L16.9895 5.73171L9.44707 -1.81077ZM24.532 -1.81077C20.3664 -5.97637 13.6127 -5.97635 9.44707 -1.81077L16.9895 5.73171L16.9895 5.7317L24.532 -1.81077ZM42.2882 15.9455L24.532 -1.81077L16.9895 5.7317L34.7458 23.4879L42.2882 15.9455ZM38.517 27.2592L42.2882 23.4879L34.7458 15.9455L30.9745 19.7167L38.517 27.2592ZM13.2183 9.50294L30.9745 27.2592L38.517 19.7167L20.7608 1.96047L13.2183 9.50294ZM9.44707 20.8166L20.7608 9.50294L13.2183 1.96047L1.9046 13.2742L9.44707 20.8166ZM27.2033 31.0304L9.44707 13.2742L1.9046 20.8166L19.6608 38.5729L27.2033 31.0304ZM23.4321 42.3441L27.2033 38.5729L19.6608 31.0304L15.8896 34.8016L23.4321 42.3441ZM-1.86664 24.5879L15.8896 42.3441L23.4321 34.8016L5.67583 17.0454L-1.86664 24.5879Z" fill="#2693FF" mask="url(#path-1-inside-1)"/>
<rect x="18.2864" y="17.3599" width="6.61111" height="1.38889" transform="rotate(-45 18.2864 17.3599)" stroke="#2693FF" stroke-width="1.38889"/>
<rect x="24.1784" y="23.2524" width="6.61111" height="1.38889" transform="rotate(-45 24.1784 23.2524)" stroke="#2693FF" stroke-width="1.38889"/>
<rect x="41.8567" y="40.9302" width="6.61111" height="1.38889" transform="rotate(-45 41.8567 40.9302)" stroke="#2693FF" stroke-width="1.38889"/>
<rect x="47.7487" y="46.8228" width="6.61111" height="1.38889" transform="rotate(-45 47.7487 46.8228)" stroke="#2693FF" stroke-width="1.38889"/>
<path d="M52.9736 7.53893C54.015 6.49754 55.7034 6.49753 56.7448 7.53893L60.516 11.3102C61.5574 12.3516 61.5574 14.04 60.516 15.0814L19.7192 55.8782L10.7102 57.3448L12.1767 48.3358L52.9736 7.53893Z" stroke="#67CDFF" stroke-width="5.33333"/>
<rect x="48.9673" y="9.66028" width="13.3333" height="2.88889" transform="rotate(45 48.9673 9.66028)" fill="#D8D8D8" stroke="#67CDFF" stroke-width="2.66667"/>
</svg>
