<svg width="25" height="34" viewBox="0 0 25 34" fill="none" xmlns="http://www.w3.org/2000/svg">
<path fill-rule="evenodd" clip-rule="evenodd" d="M24.1422 32.0351C24.1422 33.12 23.2726 34 22.2005 34H1.9417C0.86952 34 0 33.12 0 32.0351V1.97312C0 0.888173 0.86952 0.00830078 1.9417 0.00830078H14.9675L24.1422 9.51738V32.0351Z" fill="#23A566"/>
<path fill-rule="evenodd" clip-rule="evenodd" d="M15.9785 9.27612L24.1419 17.1681L24.1179 9.50522L24.1042 9.50481H16.8927C16.5641 9.50481 16.2547 9.42216 15.9833 9.27626L15.9785 9.27612Z" fill="#1C8F5A"/>
<path fill-rule="evenodd" clip-rule="evenodd" d="M24.1418 9.50473H16.8926C15.8204 9.50473 14.9509 8.62486 14.9509 7.53992V0L24.1418 9.50473Z" fill="#8ED1B1"/>
<path fill-rule="evenodd" clip-rule="evenodd" d="M5.79285 27.7126H18.3492V16.7095H5.79285V27.7126ZM12.8483 20.2462H16.7966V18.2814H12.8483V20.2462ZM12.8483 23.2591H16.7966V21.4251H12.8483V23.2591ZM12.8483 26.1407H16.7966V24.438H12.8483V26.1407ZM7.34668 26.1407H11.2946V24.438H7.34668V26.1407ZM7.34668 23.2591H11.2946V21.4251H7.34668V23.2591ZM7.34668 20.2462H11.2946V18.2814H7.34668V20.2462Z" fill="white"/>
</svg>
