<svg width="64" height="64" viewBox="0 0 64 64" fill="none" xmlns="http://www.w3.org/2000/svg">
<path d="M21.3335 32.0001H26.6668L30.6668 26.6667L36.0002 37.3334L38.6668 32.0001H56.0002" stroke="#2693FF" stroke-width="2.66667" stroke-linecap="round" stroke-linejoin="round"/>
<path fill-rule="evenodd" clip-rule="evenodd" d="M28.0839 14.5615L28.0624 14.6011L25.5394 12.0179C23.0447 9.46358 19.642 8 16 8C8.63621 8 2.66667 13.9695 2.66667 21.3333C2.66667 24.9751 4.1301 28.3781 6.66049 30.8511L6.82556 31.0085C6.88139 31.0612 6.88139 31.0612 6.96376 31.1381L31.998 54.9821L57.0646 31.1115C57.1208 31.0591 57.1208 31.0591 57.1722 31.0107L57.2605 30.9264L57.3154 30.8728C59.8698 28.378 61.3333 24.9753 61.3333 21.3333C61.3333 13.9695 55.3638 8 48 8C44.3583 8 40.9553 9.46343 38.4381 12.0391L32 18.4782L28.0839 14.5615Z" stroke="#67CDFF" stroke-width="5.33333"/>
</svg>
