<svg width="58" height="34" viewBox="0 0 58 34" fill="none" xmlns="http://www.w3.org/2000/svg">
<path d="M39.3025 11.3333C40.5992 11.3333 41.8441 10.8247 42.7697 9.91667C43.6954 9.00866 44.9403 8.5 46.2369 8.5H46.525C48.6517 8.5 50.5987 9.6929 51.5645 11.5877L52.2202 12.8741C52.6245 13.6673 53.4395 14.1667 54.3298 14.1667H56.0568C57.7961 14.1667 58.5251 16.3878 57.1241 17.4185C56.2643 18.0511 55.1682 18.2697 54.1315 18.0155L51.9114 17.471C50.6355 17.1581 49.3267 17 48.013 17C43.7267 17 39.6114 18.6815 36.5515 21.6831L33.0695 25.0987C29.1047 28.988 23.7725 31.1667 18.2186 31.1667C16.3673 32.9827 13.8775 34 11.2842 34H6.66511L12.4418 28.3333L26.8837 22.6667L15.3302 25.5C11.7853 25.5 8.53996 23.5116 6.93013 20.3533L6.66511 19.8333H15.3302L6.44903 18.0909C3.21849 17.4571 0.88837 14.6255 0.88837 11.3333L12.4418 14.1667L6.35704 11.7791C1.68023 9.94404 -0.728036 4.75682 0.88837 0L2.04774 0.758185C12.5991 7.6584 24.933 11.3333 37.5403 11.3333H39.3025Z" fill="#2693FF"/>
</svg>
