<svg width="24" height="24" viewBox="0 0 24 24" fill="none" xmlns="http://www.w3.org/2000/svg">
<path fill-rule="evenodd" clip-rule="evenodd" d="M12 6C12.5523 6 13 6.45576 13 7.00247L13.0002 7.10006C13.6385 7.22966 14.2327 7.48086 14.7574 7.82843L14.8267 7.75911C15.1881 7.39773 15.7537 7.36695 16.1479 7.67365L16.2426 7.75736C16.6332 8.14788 16.6275 8.78674 16.2409 9.17332L16.1716 9.24255C16.5191 9.76732 16.7703 10.3615 16.8999 10.9998L16.9975 11C17.5116 11 17.9353 11.3827 17.9933 11.8827L18 12C18 12.5523 17.5442 13 16.9975 13L16.8997 13.0012C16.7701 13.6391 16.519 14.233 16.1716 14.7574L16.2409 14.8267C16.6023 15.1881 16.6331 15.7537 16.3264 16.1479L16.2426 16.2426C15.8521 16.6332 15.2133 16.6275 14.8267 16.2409L14.7574 16.1716C14.2327 16.5191 13.6385 16.7703 13.0002 16.8999L13 16.9975C13 17.5116 12.6173 17.9353 12.1173 17.9933L12 18C11.4477 18 11 17.5442 11 16.9975L10.9988 16.8997C10.3609 16.7701 9.76705 16.519 9.24255 16.1716L9.17332 16.2409C8.81195 16.6023 8.2463 16.6331 7.85212 16.3264L7.75736 16.2426C7.36683 15.8521 7.37252 15.2133 7.75911 14.8267L7.82843 14.7574C7.48104 14.233 7.22992 13.6391 7.10026 13.0012L7.00247 13C6.48837 13 6.06465 12.6173 6.00674 12.1173L6 12C6 11.4477 6.45576 11 7.00247 11L7.10006 10.9998C7.22966 10.3615 7.48086 9.76732 7.82843 9.24255L7.75911 9.17332C7.39773 8.81195 7.36695 8.2463 7.67365 7.85212L7.75736 7.75736C8.14788 7.36683 8.78674 7.37252 9.17332 7.75911L9.24255 7.82843C9.76705 7.48104 10.3609 7.22992 10.9988 7.10026L11 7.00247C11 6.48837 11.3827 6.06465 11.8827 6.00674L12 6Z" stroke="#67CDFF" stroke-width="2"/>
<path d="M12 14C13.1046 14 14 13.1046 14 12C14 10.8954 13.1046 10 12 10C10.8954 10 10 10.8954 10 12C10 13.1046 10.8954 14 12 14Z" stroke="#2693FF" stroke-width="2"/>
<path d="M8.99786 2.4585C5.88888 3.43574 3.43452 5.89054 2.45788 8.99978M2.4576 14.9994C3.4346 18.1108 5.89138 20.567 9.00316 21.5432M15.0036 21.5411C18.1129 20.5632 20.5673 18.1074 21.5431 14.9971M21.5422 8.99988C20.5658 5.89142 18.1125 3.43706 15.0046 2.45928" stroke="#67CDFF" stroke-width="2"/>
<path d="M22 14C23.1046 14 24 13.1046 24 12C24 10.8954 23.1046 10 22 10C20.8954 10 20 10.8954 20 12C20 13.1046 20.8954 14 22 14Z" fill="#2693FF"/>
<path d="M2 14C3.10457 14 4 13.1046 4 12C4 10.8954 3.10457 10 2 10C0.89543 10 0 10.8954 0 12C0 13.1046 0.89543 14 2 14Z" fill="#2693FF"/>
<path d="M12 4C13.1046 4 14 3.10457 14 2C14 0.89543 13.1046 0 12 0C10.8954 0 10 0.89543 10 2C10 3.10457 10.8954 4 12 4Z" fill="#2693FF"/>
<path d="M12 24C13.1046 24 14 23.1046 14 22C14 20.8954 13.1046 20 12 20C10.8954 20 10 20.8954 10 22C10 23.1046 10.8954 24 12 24Z" fill="#2693FF"/>
</svg>
