<svg width="64" height="64" viewBox="0 0 64 64" fill="none" xmlns="http://www.w3.org/2000/svg">
<path fill-rule="evenodd" clip-rule="evenodd" d="M32 16C33.4728 16 34.6667 17.2154 34.6667 18.6733L34.6672 18.9335C36.3694 19.2791 37.9538 19.949 39.3532 20.8758L39.5378 20.691C40.5015 19.7273 42.0099 19.6452 43.061 20.4631L43.3137 20.6863C44.3551 21.7277 44.3399 23.4313 43.309 24.4622L43.1242 24.6468C44.051 26.0462 44.7209 27.6306 45.0665 29.3328L45.3267 29.3333C46.6977 29.3333 47.8276 30.3539 47.982 31.6871L48 32C48 33.4728 46.7846 34.6667 45.3267 34.6667L45.066 34.6698C44.7202 36.371 44.0506 37.9545 43.1242 39.3532L43.309 39.5378C44.2727 40.5015 44.3548 42.0099 43.5369 43.061L43.3137 43.3137C42.2723 44.3551 40.5687 44.3399 39.5378 43.309L39.3532 43.1242C37.9538 44.051 36.3694 44.7209 34.6672 45.0665L34.6667 45.3267C34.6667 46.6977 33.6461 47.8276 32.3129 47.982L32 48C30.5272 48 29.3333 46.7846 29.3333 45.3267L29.3302 45.066C27.629 44.7202 26.0455 44.0506 24.6468 43.1242L24.4622 43.309C23.4985 44.2727 21.9901 44.3548 20.939 43.5369L20.6863 43.3137C19.6449 42.2723 19.6601 40.5687 20.691 39.5378L20.8758 39.3532C19.9494 37.9545 19.2798 36.371 18.934 34.6698L18.6733 34.6667C17.3023 34.6667 16.1724 33.6461 16.018 32.3129L16 32C16 30.5272 17.2154 29.3333 18.6733 29.3333L18.9335 29.3328C19.2791 27.6306 19.949 26.0462 20.8758 24.6468L20.691 24.4622C19.7273 23.4985 19.6452 21.9901 20.4631 20.939L20.6863 20.6863C21.7277 19.6449 23.4313 19.6601 24.4622 20.691L24.6468 20.8758C26.0455 19.9494 27.629 19.2798 29.3302 18.934L29.3333 18.6733C29.3333 17.3023 30.3539 16.1724 31.6871 16.018L32 16Z" stroke="#67CDFF" stroke-width="5.33333"/>
<path d="M32 37.3334C34.9455 37.3334 37.3333 34.9456 37.3333 32.0001C37.3333 29.0546 34.9455 26.6667 32 26.6667C29.0545 26.6667 26.6667 29.0546 26.6667 32.0001C26.6667 34.9456 29.0545 37.3334 32 37.3334Z" stroke="#2693FF" stroke-width="5.33333"/>
<path d="M23.9941 6.55591C15.7035 9.1619 9.15851 15.708 6.55414 23.9993M6.55339 39.9982C9.15874 48.2954 15.7102 54.8453 24.0082 57.4485M40.0094 57.4428C48.3009 54.8352 54.8459 48.2863 57.4481 39.9923M57.4455 23.9996C54.8419 15.7104 48.2997 9.16542 40.0122 6.558" stroke="#67CDFF" stroke-width="5.33333"/>
<path d="M58.6667 37.3334C61.6122 37.3334 64 34.9456 64 32.0001C64 29.0546 61.6122 26.6667 58.6667 26.6667C55.7212 26.6667 53.3333 29.0546 53.3333 32.0001C53.3333 34.9456 55.7212 37.3334 58.6667 37.3334Z" fill="#2693FF"/>
<path d="M5.33333 37.3334C8.27885 37.3334 10.6667 34.9456 10.6667 32.0001C10.6667 29.0546 8.27885 26.6667 5.33333 26.6667C2.38781 26.6667 0 29.0546 0 32.0001C0 34.9456 2.38781 37.3334 5.33333 37.3334Z" fill="#2693FF"/>
<path d="M32 10.6667C34.9455 10.6667 37.3333 8.27885 37.3333 5.33333C37.3333 2.38781 34.9455 0 32 0C29.0545 0 26.6667 2.38781 26.6667 5.33333C26.6667 8.27885 29.0545 10.6667 32 10.6667Z" fill="#2693FF"/>
<path d="M32 63.9999C34.9455 63.9999 37.3333 61.6121 37.3333 58.6666C37.3333 55.7211 34.9455 53.3333 32 53.3333C29.0545 53.3333 26.6667 55.7211 26.6667 58.6666C26.6667 61.6121 29.0545 63.9999 32 63.9999Z" fill="#2693FF"/>
</svg>
