<svg width="24" height="24" viewBox="0 0 24 24" fill="none" xmlns="http://www.w3.org/2000/svg">
<rect x="1" y="3" width="22" height="14" rx="1" stroke="#67CDFF" stroke-width="2"/>
<rect x="11" y="18" width="2" height="6" fill="#2693FF"/>
<path fill-rule="evenodd" clip-rule="evenodd" d="M13 18H15L18 24H16L13 18Z" fill="#2693FF"/>
<path fill-rule="evenodd" clip-rule="evenodd" d="M9 18H11L8 24H6L9 18Z" fill="#2693FF"/>
<path d="M11 1C11 0.447715 11.4477 0 12 0C12.5523 0 13 0.447715 13 1V2H11V1Z" fill="#2693FF"/>
<path d="M4.5 13.5L8.5 9.5H15.5L19.5 6.5" stroke="#67CDFF"/>
<path fill-rule="evenodd" clip-rule="evenodd" d="M4.5 15C5.32843 15 6 14.3284 6 13.5C6 12.6716 5.32843 12 4.5 12C3.67157 12 3 12.6716 3 13.5C3 14.3284 3.67157 15 4.5 15Z" fill="#2693FF"/>
<path fill-rule="evenodd" clip-rule="evenodd" d="M19.5 8C20.3284 8 21 7.32843 21 6.5C21 5.67157 20.3284 5 19.5 5C18.6716 5 18 5.67157 18 6.5C18 7.32843 18.6716 8 19.5 8Z" fill="#2693FF"/>
<path fill-rule="evenodd" clip-rule="evenodd" d="M15.5 11C16.3284 11 17 10.3284 17 9.5C17 8.67157 16.3284 8 15.5 8C14.6716 8 14 8.67157 14 9.5C14 10.3284 14.6716 11 15.5 11Z" fill="#2693FF"/>
<path fill-rule="evenodd" clip-rule="evenodd" d="M8.5 11C9.32843 11 10 10.3284 10 9.5C10 8.67157 9.32843 8 8.5 8C7.67157 8 7 8.67157 7 9.5C7 10.3284 7.67157 11 8.5 11Z" fill="#2693FF"/>
</svg>
