<svg width="24" height="24" viewBox="0 0 24 24" fill="none" xmlns="http://www.w3.org/2000/svg">
<path fill-rule="evenodd" clip-rule="evenodd" d="M12 21.35L9.85401 22.7886L8.42191 20.6383L5.88873 21.1462L5.38855 18.6114L2.85383 18.1113L3.36173 15.5781L1.21136 14.146L2.65 12L1.21136 9.85401L3.36173 8.42191L2.85383 5.88873L5.38855 5.38855L5.88873 2.85383L8.42191 3.36173L9.85401 1.21136L12 2.65L14.146 1.21136L15.5781 3.36173L18.1113 2.85383L18.6114 5.38855L21.1462 5.88873L20.6383 8.42191L22.7886 9.85401L21.35 12L22.7886 14.146L20.6383 15.5781L21.1462 18.1113L18.6114 18.6114L18.1113 21.1462L15.5781 20.6383L14.146 22.7886L12 21.35Z" stroke="#67CDFF" stroke-width="2" stroke-linecap="round" stroke-linejoin="round"/>
<path d="M18 12C18 15.3137 15.3137 18 12 18C8.68629 18 6 15.3137 6 12C6 8.68629 8.68629 6 12 6C15.3137 6 18 8.68629 18 12Z" stroke="#2693FF" stroke-width="2"/>
<path fill-rule="evenodd" clip-rule="evenodd" d="M12 14L9.64886 15.2361L10.0979 12.618L8.19577 10.7639L10.8244 10.382L12 8L13.1756 10.382L15.8042 10.7639L13.9021 12.618L14.3511 15.2361L12 14Z" fill="#2693FF"/>
</svg>
