<svg width="35" height="24" viewBox="0 0 35 24" fill="none" xmlns="http://www.w3.org/2000/svg">
<path d="M14.6512 2.62012C15.7466 1.47426 17.2717 0.763613 18.9584 0.763613C21.2005 0.763613 23.1567 2.01877 24.1985 3.88209C25.1037 3.476 26.1058 3.25013 27.1601 3.25013C31.2041 3.25013 34.4826 6.57019 34.4826 10.6655C34.4826 14.7613 31.2041 18.0813 27.1601 18.0813C26.6666 18.0813 26.1842 18.0318 25.7177 17.9371C24.8004 19.5799 23.0522 20.6898 21.0457 20.6898C20.2058 20.6898 19.4113 20.495 18.7039 20.1487C17.7739 22.3447 15.6073 23.8845 13.0821 23.8845C10.4524 23.8845 8.21121 22.214 7.35093 19.8713C6.97498 19.9515 6.58548 19.9932 6.18583 19.9932C3.05486 19.9932 0.516602 17.4188 0.516602 14.2425C0.516602 12.114 1.65703 10.2555 3.35146 9.26121C3.0026 8.45536 2.80858 7.56597 2.80858 6.63091C2.80858 2.97812 5.76246 0.017025 9.40582 0.017025C11.5449 0.017025 13.4459 1.03806 14.6512 2.62012Z" fill="#00A1E0"/>
<path d="M5.43625 12.3941C5.41496 12.45 5.44399 12.4616 5.45077 12.4713C5.51464 12.518 5.57947 12.5515 5.64479 12.5889C5.99122 12.7735 6.3183 12.8274 6.66038 12.8274C7.35712 12.8274 7.78968 12.4553 7.78968 11.8564V11.8447C7.78968 11.291 7.30148 11.0899 6.84328 10.9447L6.78376 10.9252C6.4383 10.8125 6.14025 10.7154 6.14025 10.4871V10.4749C6.14025 10.2797 6.31443 10.1359 6.58442 10.1359C6.8844 10.1359 7.24051 10.236 7.46986 10.3632C7.46986 10.3632 7.53711 10.4069 7.56179 10.3414C7.57534 10.3064 7.69146 9.99259 7.70356 9.95859C7.71662 9.92167 7.69339 9.89447 7.66969 9.8799C7.40793 9.72009 7.04601 9.6108 6.67151 9.6108L6.60184 9.61128C5.96413 9.61128 5.51899 9.99794 5.51899 10.5522V10.5638C5.51899 11.1482 6.01009 11.3376 6.47023 11.4697L6.54426 11.4926C6.87957 11.596 7.16842 11.6849 7.16842 11.922V11.9336C7.16842 12.1503 6.98069 12.3115 6.6778 12.3115C6.56023 12.3115 6.18525 12.3091 5.78027 12.0521C5.7314 12.0235 5.70285 12.0026 5.66511 11.9798C5.64527 11.9671 5.59544 11.9453 5.57366 12.0113L5.43625 12.3941Z" fill="white"/>
<path d="M15.6362 12.3941C15.6149 12.45 15.644 12.4616 15.6507 12.4713C15.7146 12.518 15.7794 12.5515 15.8448 12.5889C16.1912 12.7735 16.5183 12.8274 16.8603 12.8274C17.5571 12.8274 17.9896 12.4553 17.9896 11.8564V11.8447C17.9896 11.291 17.5014 11.0899 17.0432 10.9447L16.9837 10.9252C16.6383 10.8125 16.3402 10.7154 16.3402 10.4871V10.4749C16.3402 10.2797 16.5144 10.1359 16.7844 10.1359C17.0844 10.1359 17.4405 10.236 17.6698 10.3632C17.6698 10.3632 17.7371 10.4069 17.7617 10.3414C17.7753 10.3064 17.8914 9.99259 17.9035 9.95859C17.9166 9.92167 17.8934 9.89447 17.8696 9.8799C17.6079 9.72009 17.246 9.6108 16.8715 9.6108L16.8018 9.61128C16.1641 9.61128 15.719 9.99794 15.719 10.5522V10.5638C15.719 11.1482 16.2101 11.3376 16.6702 11.4697L16.7442 11.4926C17.0795 11.596 17.3689 11.6849 17.3689 11.922V11.9336C17.3689 12.1503 17.1806 12.3115 16.8778 12.3115C16.7602 12.3115 16.3852 12.3091 15.9802 12.0521C15.9314 12.0235 15.9023 12.0036 15.8656 11.9798C15.853 11.9715 15.7939 11.9487 15.7736 12.0113L15.6362 12.3941Z" fill="white"/>
<path fill-rule="evenodd" clip-rule="evenodd" d="M22.9164 10.0863C23.0349 10.2286 23.1239 10.3996 23.181 10.5934C23.2381 10.7862 23.2667 10.9975 23.2667 11.221C23.2667 11.4444 23.2381 11.6557 23.181 11.8486C23.1239 12.0424 23.0349 12.2134 22.9164 12.3557C22.7978 12.4985 22.6473 12.6126 22.4698 12.6938C22.2917 12.7749 22.0822 12.8162 21.8466 12.8162C21.6105 12.8162 21.401 12.7749 21.2229 12.6938C21.0453 12.6126 20.8948 12.4985 20.7763 12.3557C20.6573 12.2129 20.5687 12.0419 20.5112 11.8486C20.4545 11.6562 20.426 11.4449 20.426 11.221C20.426 10.9971 20.4545 10.7862 20.5112 10.5934C20.5687 10.4001 20.6578 10.2291 20.7758 10.0863C20.8948 9.94347 21.0448 9.82884 21.2229 9.74529C21.4005 9.66223 21.6105 9.61997 21.8466 9.61997C22.0822 9.61997 22.2922 9.66223 22.4698 9.74529C22.6478 9.82884 22.7978 9.94347 22.9164 10.0863ZM22.4127 12.0147C22.5365 11.8262 22.5994 11.5595 22.5994 11.221C22.5994 10.8829 22.5365 10.6167 22.4132 10.4302C22.2903 10.2456 22.1049 10.1557 21.8466 10.1557C21.5877 10.1557 21.4034 10.2456 21.2829 10.4302C21.161 10.6167 21.099 10.8829 21.099 11.221C21.099 11.5595 21.161 11.8267 21.2829 12.0147C21.4034 12.2017 21.5877 12.292 21.8466 12.292C22.1049 12.292 22.2903 12.2012 22.4127 12.0147Z" fill="white"/>
<path d="M27.9569 12.2017C27.9376 12.1449 27.8829 12.1662 27.8829 12.1662C27.7982 12.1988 27.7082 12.2289 27.6124 12.2439C27.5152 12.259 27.4082 12.2668 27.2936 12.2668C27.012 12.2668 26.7884 12.1827 26.6283 12.0166C26.4676 11.8505 26.3776 11.5819 26.3786 11.2185C26.3796 10.8878 26.4589 10.6391 26.6017 10.4496C26.7434 10.2611 26.9592 10.1645 27.2471 10.1645C27.4871 10.1645 27.67 10.1922 27.8616 10.2529C27.8616 10.2529 27.9076 10.2728 27.9293 10.2126C27.9801 10.0707 28.0179 9.96921 28.0721 9.81329C28.0876 9.76909 28.0498 9.75014 28.0363 9.7448C27.9608 9.71517 27.7827 9.66708 27.6482 9.64668C27.5224 9.62725 27.3753 9.61705 27.2118 9.61705C26.9675 9.61705 26.7497 9.65882 26.5634 9.74237C26.3776 9.82543 26.2199 9.94007 26.0951 10.0829C25.9703 10.2257 25.8754 10.3967 25.812 10.59C25.7491 10.7828 25.7172 10.9946 25.7172 11.2185C25.7172 11.7028 25.8474 12.0943 26.1043 12.3809C26.3617 12.6685 26.7483 12.8147 27.2524 12.8147C27.5505 12.8147 27.8563 12.754 28.0759 12.667C28.0759 12.667 28.118 12.6466 28.0997 12.5976L27.9569 12.2017Z" fill="white"/>
<path fill-rule="evenodd" clip-rule="evenodd" d="M30.6805 10.021C30.7609 10.1074 30.8833 10.2964 30.9326 10.4834C31.0504 10.8988 31.0011 11.2615 30.9923 11.3257C30.9917 11.3304 30.9913 11.3334 30.9912 11.3349C30.9858 11.3854 30.9341 11.3864 30.9341 11.3864L28.9653 11.3844C28.9779 11.6846 29.049 11.8974 29.1946 12.0421C29.3364 12.1835 29.5629 12.2738 29.8682 12.2743C30.2943 12.2752 30.4984 12.1968 30.6378 12.1432C30.6512 12.1381 30.6639 12.1332 30.6762 12.1286C30.6762 12.1286 30.7309 12.1087 30.7502 12.1626L30.8789 12.5245C30.905 12.5857 30.8842 12.607 30.8625 12.6192C30.7391 12.6877 30.4396 12.8149 29.8711 12.8169C29.5948 12.8174 29.3543 12.7775 29.1564 12.7008C28.9571 12.6236 28.7906 12.5128 28.6614 12.3715C28.5318 12.2311 28.436 12.0616 28.376 11.8692C28.3165 11.6783 28.2865 11.466 28.2865 11.2382C28.2865 11.0143 28.3155 10.802 28.3731 10.6072C28.4302 10.4115 28.5202 10.239 28.6397 10.0943C28.7592 9.94906 28.9116 9.83248 29.093 9.74699C29.274 9.6615 29.497 9.62021 29.7428 9.62021C29.9538 9.62021 30.1464 9.66587 30.307 9.73485C30.4299 9.78828 30.5538 9.88397 30.6805 10.021ZM29.1337 10.4304C29.0538 10.5524 29.0021 10.7088 28.9745 10.8967H30.3786C30.3646 10.7156 30.3293 10.5524 30.248 10.4304C30.1256 10.2458 29.9548 10.1438 29.6964 10.1438C29.438 10.1438 29.2542 10.2454 29.1337 10.4304Z" fill="white"/>
<path fill-rule="evenodd" clip-rule="evenodd" d="M14.9135 10.021C14.9939 10.1074 15.1158 10.2964 15.1651 10.4834C15.2834 10.8989 15.2341 11.2616 15.2253 11.3258C15.2247 11.3304 15.2243 11.3335 15.2242 11.3349C15.2188 11.3854 15.1671 11.3864 15.1671 11.3864L13.1983 11.3844C13.2109 11.6846 13.282 11.8974 13.4276 12.0421C13.5694 12.1835 13.7959 12.2738 14.1007 12.2743C14.5275 12.2752 14.7312 12.1969 14.8706 12.1433C14.884 12.1381 14.8968 12.1332 14.9092 12.1286C14.9092 12.1286 14.9639 12.1087 14.9837 12.1626L15.1119 12.5245C15.138 12.5857 15.1172 12.607 15.0955 12.6192C14.9721 12.6877 14.6726 12.8149 14.1041 12.8169C13.8278 12.8174 13.5873 12.7775 13.3894 12.7008C13.1901 12.6236 13.0236 12.5128 12.8945 12.3715C12.7648 12.2311 12.669 12.0616 12.609 11.8692C12.5495 11.6783 12.5195 11.466 12.5195 11.2382C12.5195 11.0143 12.549 10.802 12.6061 10.6072C12.6632 10.4115 12.7532 10.239 12.8727 10.0943C12.9922 9.94906 13.1446 9.83248 13.326 9.74699C13.507 9.6615 13.7305 9.62021 13.9758 9.62021C14.1868 9.62021 14.3794 9.66587 14.54 9.73485C14.6629 9.78828 14.7868 9.88397 14.9135 10.021ZM13.3667 10.4304C13.2868 10.5524 13.2356 10.7088 13.2075 10.8967H14.6116C14.5976 10.7156 14.5623 10.5524 14.4815 10.4304C14.3586 10.2458 14.1878 10.1438 13.9294 10.1438C13.671 10.1438 13.4872 10.2454 13.3667 10.4304Z" fill="white"/>
<path fill-rule="evenodd" clip-rule="evenodd" d="M9.42813 10.7928C9.55199 10.7928 9.65554 10.7962 9.73537 10.802C9.73537 10.802 9.89069 10.8161 10.06 10.8404V10.7569C10.06 10.4936 10.0054 10.3687 9.89794 10.2862C9.78763 10.2012 9.62409 10.1584 9.41119 10.1584C9.41119 10.1584 8.93219 10.1521 8.55333 10.359C8.53592 10.3692 8.52092 10.3751 8.52092 10.3751C8.52092 10.3751 8.47398 10.3916 8.45657 10.343L8.31722 9.96703C8.29593 9.91263 8.33464 9.88834 8.33464 9.88834C8.51172 9.74942 8.94186 9.66587 8.94186 9.66587C9.08411 9.63721 9.32168 9.61681 9.46926 9.61681C9.86262 9.61681 10.167 9.70862 10.3736 9.89029C10.5811 10.0724 10.6866 10.3663 10.6866 10.7627L10.6876 12.5701C10.6876 12.5701 10.6915 12.6226 10.6426 12.6347C10.6426 12.6347 10.57 12.6547 10.5047 12.6702C10.4389 12.6853 10.2018 12.7333 10.0087 12.7664C9.81375 12.7999 9.61247 12.8164 9.41071 12.8164C9.21911 12.8164 9.04395 12.7984 8.88961 12.763C8.73284 12.7275 8.59785 12.6687 8.4885 12.5886C8.37818 12.5084 8.29157 12.4045 8.23158 12.2797C8.17158 12.1553 8.14158 12.0033 8.14158 11.8284C8.14158 11.6565 8.1769 11.503 8.24658 11.3728C8.31625 11.2426 8.41254 11.1328 8.53205 11.0468C8.65107 10.9614 8.78945 10.8967 8.94331 10.8555C9.09621 10.8142 9.25927 10.7928 9.42813 10.7928ZM8.83832 12.0737C8.86445 12.1135 8.87509 12.1291 8.95202 12.1908C8.95057 12.1903 9.12863 12.3307 9.52925 12.3064C9.81085 12.2894 10.061 12.2355 10.061 12.2355H10.0605V11.3368C10.0605 11.3368 9.80843 11.2951 9.52635 11.2912C9.12476 11.2858 8.95396 11.4345 8.95541 11.434C8.83687 11.518 8.77977 11.6428 8.77977 11.8167C8.77977 11.9265 8.79961 12.013 8.83832 12.0737Z" fill="white"/>
<path d="M25.6143 9.78357C25.6293 9.73889 25.5979 9.71751 25.5848 9.71266C25.5514 9.69954 25.384 9.66408 25.2548 9.65582C25.0076 9.64077 24.8702 9.68254 24.7473 9.73791C24.6253 9.79329 24.4899 9.88267 24.4144 9.98419V9.74374C24.4144 9.71023 24.3907 9.68351 24.3578 9.68351H23.8531C23.8202 9.68351 23.7965 9.71023 23.7965 9.74374V12.6917C23.7965 12.7248 23.8236 12.752 23.8565 12.752H24.3737C24.4067 12.752 24.4333 12.7248 24.4333 12.6917V11.2189C24.4333 11.0212 24.455 10.824 24.4986 10.7002C24.5412 10.5778 24.5992 10.4796 24.6708 10.4092C24.7429 10.3393 24.8247 10.2902 24.9142 10.2625C25.0057 10.2343 25.1068 10.2251 25.1784 10.2251C25.2814 10.2251 25.3947 10.2518 25.3947 10.2518C25.4324 10.2562 25.4537 10.2329 25.4663 10.1984C25.5001 10.1081 25.5959 9.83749 25.6143 9.78357Z" fill="white"/>
<path d="M20.7593 8.4175C20.6964 8.39807 20.6393 8.38495 20.5648 8.37087C20.4893 8.35726 20.3993 8.35046 20.2972 8.35046C19.9411 8.35046 19.6605 8.4515 19.4636 8.65065C19.2676 8.84884 19.1346 9.15048 19.0678 9.54734L19.0436 9.68092H18.5965C18.5965 9.68092 18.5423 9.67897 18.5307 9.73823L18.4577 10.1497C18.4523 10.1885 18.4693 10.2133 18.5215 10.2133H18.9565L18.5152 12.6867C18.4809 12.8859 18.4412 13.0495 18.3972 13.1739C18.3541 13.2963 18.312 13.3881 18.2598 13.4551C18.2095 13.5193 18.162 13.5669 18.0798 13.5946C18.012 13.6174 17.9337 13.6281 17.848 13.6281C17.8006 13.6281 17.7372 13.6203 17.6903 13.6106C17.6438 13.6014 17.6192 13.5912 17.5838 13.5761C17.5838 13.5761 17.533 13.5567 17.5127 13.6077C17.4967 13.6499 17.3806 13.97 17.3666 14.0094C17.353 14.0487 17.3724 14.0793 17.3971 14.0886C17.4551 14.109 17.4982 14.1226 17.5771 14.1415C17.6864 14.1672 17.7788 14.1687 17.8654 14.1687C18.0464 14.1687 18.2119 14.143 18.3488 14.0934C18.4862 14.0434 18.6062 13.9564 18.7127 13.8389C18.8273 13.7116 18.8994 13.5785 18.9681 13.3964C19.0363 13.2166 19.0949 12.9932 19.1413 12.7328L19.585 10.2133H20.2334C20.2334 10.2133 20.2881 10.2152 20.2992 10.1555L20.3727 9.74455C20.3776 9.7052 20.3611 9.68092 20.3084 9.68092H19.6789C19.6823 9.66683 19.7108 9.44436 19.7829 9.235C19.8139 9.14611 19.8719 9.07374 19.9208 9.02419C19.9692 8.97562 20.0248 8.94113 20.0858 8.92121C20.1482 8.90081 20.2193 8.8911 20.2972 8.8911C20.3563 8.8911 20.4148 8.8979 20.4589 8.90713C20.5198 8.92024 20.5435 8.92704 20.5595 8.9319C20.6238 8.95133 20.6326 8.93238 20.6451 8.9013L20.7956 8.48647C20.8111 8.44178 20.7729 8.42284 20.7593 8.4175Z" fill="white"/>
<path d="M11.9642 12.692C11.9642 12.725 11.9405 12.7517 11.9076 12.7517H11.3855C11.3526 12.7517 11.3294 12.725 11.3294 12.692V8.47377C11.3294 8.44073 11.3526 8.41402 11.3855 8.41402H11.9076C11.9405 8.41402 11.9642 8.44073 11.9642 8.47377V12.692Z" fill="white"/>
</svg>
