<svg width="64" height="64" viewBox="0 0 64 64" fill="none" xmlns="http://www.w3.org/2000/svg">
<path d="M58.6653 32.0001C58.6653 46.7266 46.7271 58.6648 32.0006 58.6648C17.2741 58.6648 5.33592 46.7266 5.33592 32.0001C5.33592 17.2736 17.2741 5.33537 32.0006 5.33537C46.7271 5.33537 58.6653 17.2736 58.6653 32.0001Z" stroke="#67CDFF" stroke-width="5.33724"/>
<path d="M32 45.3352C39.3649 45.3352 45.3353 39.3648 45.3353 31.9999C45.3353 24.635 39.3649 18.6646 32 18.6646C24.6351 18.6646 18.6647 24.635 18.6647 31.9999C18.6647 39.3648 24.6351 45.3352 32 45.3352Z" stroke="#67CDFF" stroke-width="5.33724"/>
<rect y="26.6667" width="24" height="10.6667" rx="2.66862" fill="#2693FF"/>
<rect x="26.6666" width="10.6667" height="24" rx="2.66862" fill="#2693FF"/>
<rect x="40.0006" y="26.6667" width="24" height="10.6667" rx="2.66862" fill="#2693FF"/>
<rect x="26.6666" y="40" width="10.6667" height="24" rx="2.66862" fill="#2693FF"/>
</svg>
