<svg width="179" height="28" viewBox="0 0 179 28" fill="none" xmlns="http://www.w3.org/2000/svg">
<path d="M0 4C0 1.79086 1.79086 0 4 0H175C177.209 0 179 1.79086 179 4V24C179 26.2091 177.209 28 175 28H4C1.79086 28 0 26.2091 0 24V4Z" fill="#187BBD"/>
<path d="M38.5623 9.878V11.376H34.0753V14.372H37.8623V15.877H34.0753V20H32.1783V9.878H38.5623ZM42.5564 12.706C43.0931 12.706 43.5784 12.7923 44.0124 12.965C44.4511 13.1377 44.8244 13.3827 45.1324 13.7C45.4404 14.0173 45.6784 14.4047 45.8464 14.862C46.0144 15.3193 46.0984 15.8303 46.0984 16.395C46.0984 16.9643 46.0144 17.4777 45.8464 17.935C45.6784 18.3923 45.4404 18.782 45.1324 19.104C44.8244 19.426 44.4511 19.6733 44.0124 19.846C43.5784 20.0187 43.0931 20.105 42.5564 20.105C42.0197 20.105 41.5321 20.0187 41.0934 19.846C40.6547 19.6733 40.2791 19.426 39.9664 19.104C39.6584 18.782 39.4181 18.3923 39.2454 17.935C39.0774 17.4777 38.9934 16.9643 38.9934 16.395C38.9934 15.8303 39.0774 15.3193 39.2454 14.862C39.4181 14.4047 39.6584 14.0173 39.9664 13.7C40.2791 13.3827 40.6547 13.1377 41.0934 12.965C41.5321 12.7923 42.0197 12.706 42.5564 12.706ZM42.5564 18.775C43.1537 18.775 43.5947 18.5743 43.8794 18.173C44.1687 17.7717 44.3134 17.1837 44.3134 16.409C44.3134 15.6343 44.1687 15.044 43.8794 14.638C43.5947 14.232 43.1537 14.029 42.5564 14.029C41.9497 14.029 41.5017 14.2343 41.2124 14.645C40.9231 15.051 40.7784 15.639 40.7784 16.409C40.7784 17.179 40.9231 17.767 41.2124 18.173C41.5017 18.5743 41.9497 18.775 42.5564 18.775ZM49.2884 9.598V20H47.5594V9.598H49.2884ZM53.0892 9.598V20H51.3602V9.598H53.0892ZM58.115 12.706C58.6517 12.706 59.137 12.7923 59.571 12.965C60.0097 13.1377 60.383 13.3827 60.691 13.7C60.999 14.0173 61.237 14.4047 61.405 14.862C61.573 15.3193 61.657 15.8303 61.657 16.395C61.657 16.9643 61.573 17.4777 61.405 17.935C61.237 18.3923 60.999 18.782 60.691 19.104C60.383 19.426 60.0097 19.6733 59.571 19.846C59.137 20.0187 58.6517 20.105 58.115 20.105C57.5783 20.105 57.0907 20.0187 56.652 19.846C56.2133 19.6733 55.8377 19.426 55.525 19.104C55.217 18.782 54.9767 18.3923 54.804 17.935C54.636 17.4777 54.552 16.9643 54.552 16.395C54.552 15.8303 54.636 15.3193 54.804 14.862C54.9767 14.4047 55.217 14.0173 55.525 13.7C55.8377 13.3827 56.2133 13.1377 56.652 12.965C57.0907 12.7923 57.5783 12.706 58.115 12.706ZM58.115 18.775C58.7123 18.775 59.1533 18.5743 59.438 18.173C59.7273 17.7717 59.872 17.1837 59.872 16.409C59.872 15.6343 59.7273 15.044 59.438 14.638C59.1533 14.232 58.7123 14.029 58.115 14.029C57.5083 14.029 57.0603 14.2343 56.771 14.645C56.4817 15.051 56.337 15.639 56.337 16.409C56.337 17.179 56.4817 17.767 56.771 18.173C57.0603 18.5743 57.5083 18.775 58.115 18.775ZM62.131 12.818H63.503C63.6337 12.818 63.7434 12.8483 63.832 12.909C63.9207 12.9697 63.9767 13.0467 64 13.14L65.029 16.976C65.085 17.186 65.1294 17.3913 65.162 17.592C65.1994 17.7927 65.2344 17.9933 65.267 18.194C65.3184 17.9933 65.372 17.7927 65.428 17.592C65.4887 17.3913 65.5517 17.186 65.617 16.976L66.807 13.126C66.835 13.0327 66.891 12.9557 66.975 12.895C67.059 12.8343 67.157 12.804 67.269 12.804H68.032C68.158 12.804 68.263 12.8343 68.347 12.895C68.431 12.9557 68.487 13.0327 68.515 13.126L69.691 17.046C69.7517 17.2467 69.8054 17.4427 69.852 17.634C69.9034 17.8207 69.9524 18.0097 69.999 18.201C70.0317 18.0003 70.0667 17.7997 70.104 17.599C70.146 17.3983 70.1974 17.1907 70.258 16.976L71.322 13.14C71.3454 13.0467 71.4014 12.9697 71.49 12.909C71.5787 12.8483 71.6814 12.818 71.798 12.818H73.107L70.832 20H69.439C69.2897 20 69.1824 19.8973 69.117 19.692L67.822 15.541C67.78 15.4057 67.7404 15.2703 67.703 15.135C67.6704 14.995 67.6424 14.8573 67.619 14.722C67.591 14.862 67.5607 15.002 67.528 15.142C67.4954 15.2773 67.458 15.415 67.416 15.555L66.107 19.692C66.0417 19.8973 65.9157 20 65.729 20H64.406L62.131 12.818ZM84.0253 18.712C83.7079 18.712 83.4233 18.6373 83.1713 18.488C82.9239 18.3387 82.7513 18.0983 82.6533 17.767C82.3779 18.103 82.0863 18.3433 81.7783 18.488C81.4703 18.6327 81.1389 18.705 80.7843 18.705C80.4903 18.705 80.2336 18.6537 80.0143 18.551C79.7996 18.4483 79.6176 18.3083 79.4683 18.131C79.3236 17.949 79.2139 17.7367 79.1393 17.494C79.0693 17.2467 79.0343 16.9783 79.0343 16.689C79.0343 16.423 79.0669 16.1547 79.1323 15.884C79.2023 15.6087 79.3049 15.345 79.4403 15.093C79.5756 14.8363 79.7436 14.5983 79.9443 14.379C80.1496 14.155 80.3899 13.9613 80.6653 13.798C80.9406 13.63 81.2486 13.4993 81.5893 13.406C81.9299 13.308 82.3079 13.259 82.7233 13.259C83.0826 13.259 83.3906 13.287 83.6473 13.343C83.9039 13.399 84.1513 13.4783 84.3893 13.581L83.7173 16.178C83.6426 16.4767 83.6053 16.7263 83.6053 16.927C83.6053 17.067 83.6216 17.1837 83.6543 17.277C83.6916 17.3703 83.7383 17.445 83.7943 17.501C83.8549 17.557 83.9273 17.5967 84.0113 17.62C84.0953 17.6387 84.1863 17.648 84.2843 17.648C84.4803 17.648 84.6646 17.5873 84.8373 17.466C85.0146 17.34 85.1686 17.165 85.2993 16.941C85.4299 16.717 85.5326 16.451 85.6073 16.143C85.6866 15.835 85.7263 15.499 85.7263 15.135C85.7263 14.5283 85.6306 13.994 85.4393 13.532C85.2526 13.07 84.9889 12.685 84.6483 12.377C84.3123 12.0643 83.9086 11.831 83.4373 11.677C82.9659 11.5183 82.4503 11.439 81.8903 11.439C81.2789 11.439 80.7096 11.5557 80.1823 11.789C79.6596 12.0177 79.2046 12.3327 78.8173 12.734C78.4346 13.1353 78.1336 13.609 77.9143 14.155C77.6996 14.701 77.5923 15.289 77.5923 15.919C77.5923 16.6843 77.7113 17.3587 77.9493 17.942C78.1873 18.5207 78.5139 19.006 78.9293 19.398C79.3446 19.7853 79.8323 20.077 80.3923 20.273C80.9569 20.469 81.5659 20.567 82.2193 20.567C82.5786 20.567 82.9146 20.546 83.2273 20.504C83.5399 20.4667 83.8269 20.413 84.0883 20.343C84.3496 20.2777 84.5876 20.2007 84.8023 20.112C85.0169 20.028 85.2083 19.937 85.3763 19.839C85.4696 19.7877 85.5489 19.762 85.6143 19.762C85.7496 19.762 85.8453 19.8367 85.9013 19.986L86.1393 20.609C85.6539 20.9263 85.0869 21.1853 84.4383 21.386C83.7896 21.5867 83.0499 21.687 82.2193 21.687C81.3746 21.687 80.5929 21.554 79.8743 21.288C79.1556 21.022 78.5326 20.6393 78.0053 20.14C77.4826 19.6453 77.0719 19.041 76.7733 18.327C76.4793 17.613 76.3323 16.8103 76.3323 15.919C76.3323 15.4197 76.3953 14.9343 76.5213 14.463C76.6519 13.9917 76.8363 13.5507 77.0743 13.14C77.3123 12.7247 77.5993 12.3443 77.9353 11.999C78.2713 11.6537 78.6446 11.3573 79.0553 11.11C79.4659 10.8627 79.9093 10.6713 80.3853 10.536C80.8659 10.396 81.3676 10.326 81.8903 10.326C82.5529 10.326 83.1876 10.438 83.7943 10.662C84.4056 10.8813 84.9446 11.1987 85.4113 11.614C85.8826 12.0247 86.2583 12.5287 86.5383 13.126C86.8183 13.7187 86.9583 14.3883 86.9583 15.135C86.9583 15.6343 86.8836 16.1033 86.7343 16.542C86.5896 16.976 86.3843 17.354 86.1183 17.676C85.8569 17.998 85.5466 18.2523 85.1873 18.439C84.8326 18.621 84.4453 18.712 84.0253 18.712ZM81.1273 17.592C81.2486 17.592 81.3699 17.5733 81.4913 17.536C81.6173 17.4987 81.7363 17.4333 81.8483 17.34C81.9603 17.242 82.0629 17.1137 82.1563 16.955C82.2496 16.7963 82.3266 16.598 82.3873 16.36L82.8983 14.386C82.7489 14.358 82.5949 14.344 82.4363 14.344C82.1469 14.344 81.8763 14.407 81.6243 14.533C81.3723 14.659 81.1529 14.8293 80.9663 15.044C80.7843 15.2587 80.6396 15.506 80.5323 15.786C80.4249 16.0613 80.3713 16.3483 80.3713 16.647C80.3713 16.9457 80.4343 17.179 80.5603 17.347C80.6909 17.5103 80.8799 17.592 81.1273 17.592ZM88.299 22.345V12.818H89.356C89.468 12.818 89.5637 12.8437 89.643 12.895C89.7223 12.9463 89.7737 13.0257 89.797 13.133L89.937 13.798C90.2263 13.4667 90.5577 13.1983 90.931 12.993C91.309 12.7877 91.75 12.685 92.254 12.685C92.646 12.685 93.003 12.7667 93.325 12.93C93.6517 13.0933 93.9317 13.3313 94.165 13.644C94.403 13.952 94.585 14.3347 94.711 14.792C94.8417 15.2447 94.907 15.765 94.907 16.353C94.907 16.8897 94.8347 17.3867 94.69 17.844C94.5453 18.3013 94.3377 18.698 94.067 19.034C93.801 19.37 93.4767 19.6337 93.094 19.825C92.716 20.0117 92.2913 20.105 91.82 20.105C91.414 20.105 91.0687 20.0443 90.784 19.923C90.504 19.797 90.252 19.6243 90.028 19.405V22.345H88.299ZM91.659 14.05C91.2997 14.05 90.9917 14.127 90.735 14.281C90.483 14.4303 90.2473 14.6427 90.028 14.918V18.138C90.224 18.3807 90.4363 18.551 90.665 18.649C90.8983 18.7423 91.148 18.789 91.414 18.789C91.6753 18.789 91.911 18.74 92.121 18.642C92.3357 18.544 92.5153 18.3947 92.66 18.194C92.8093 17.9933 92.9237 17.7413 93.003 17.438C93.0823 17.13 93.122 16.7683 93.122 16.353C93.122 15.933 93.087 15.5783 93.017 15.289C92.9517 14.995 92.856 14.757 92.73 14.575C92.604 14.393 92.45 14.26 92.268 14.176C92.0907 14.092 91.8877 14.05 91.659 14.05ZM96.215 20V12.818H97.23C97.4073 12.818 97.531 12.8507 97.601 12.916C97.671 12.9813 97.7177 13.0933 97.741 13.252L97.846 14.12C98.1027 13.6767 98.4037 13.3267 98.749 13.07C99.0943 12.8133 99.4817 12.685 99.911 12.685C100.266 12.685 100.56 12.7667 100.793 12.93L100.569 14.225C100.555 14.309 100.525 14.3697 100.478 14.407C100.431 14.4397 100.368 14.456 100.289 14.456C100.219 14.456 100.123 14.4397 100.002 14.407C99.8807 14.3743 99.7197 14.358 99.519 14.358C99.1597 14.358 98.8517 14.4583 98.595 14.659C98.3383 14.855 98.1213 15.1443 97.944 15.527V20H96.215ZM104.996 12.706C105.533 12.706 106.018 12.7923 106.452 12.965C106.891 13.1377 107.264 13.3827 107.572 13.7C107.88 14.0173 108.118 14.4047 108.286 14.862C108.454 15.3193 108.538 15.8303 108.538 16.395C108.538 16.9643 108.454 17.4777 108.286 17.935C108.118 18.3923 107.88 18.782 107.572 19.104C107.264 19.426 106.891 19.6733 106.452 19.846C106.018 20.0187 105.533 20.105 104.996 20.105C104.459 20.105 103.972 20.0187 103.533 19.846C103.094 19.6733 102.719 19.426 102.406 19.104C102.098 18.782 101.858 18.3923 101.685 17.935C101.517 17.4777 101.433 16.9643 101.433 16.395C101.433 15.8303 101.517 15.3193 101.685 14.862C101.858 14.4047 102.098 14.0173 102.406 13.7C102.719 13.3827 103.094 13.1377 103.533 12.965C103.972 12.7923 104.459 12.706 104.996 12.706ZM104.996 18.775C105.593 18.775 106.034 18.5743 106.319 18.173C106.608 17.7717 106.753 17.1837 106.753 16.409C106.753 15.6343 106.608 15.044 106.319 14.638C106.034 14.232 105.593 14.029 104.996 14.029C104.389 14.029 103.941 14.2343 103.652 14.645C103.363 15.051 103.218 15.639 103.218 16.409C103.218 17.179 103.363 17.767 103.652 18.173C103.941 18.5743 104.389 18.775 104.996 18.775ZM114.941 20C114.717 20 114.57 19.895 114.5 19.685L114.36 18.992C114.211 19.16 114.054 19.3117 113.891 19.447C113.728 19.5823 113.55 19.699 113.359 19.797C113.172 19.895 112.969 19.9697 112.75 20.021C112.535 20.077 112.302 20.105 112.05 20.105C111.658 20.105 111.299 20.0233 110.972 19.86C110.645 19.6967 110.363 19.461 110.125 19.153C109.892 18.8403 109.71 18.4553 109.579 17.998C109.453 17.5407 109.39 17.018 109.39 16.43C109.39 15.898 109.462 15.4033 109.607 14.946C109.752 14.4887 109.959 14.092 110.23 13.756C110.501 13.42 110.825 13.1587 111.203 12.972C111.581 12.7807 112.006 12.685 112.477 12.685C112.878 12.685 113.221 12.7503 113.506 12.881C113.791 13.007 114.045 13.1773 114.269 13.392V9.598H115.998V20H114.941ZM112.638 18.733C112.997 18.733 113.303 18.6583 113.555 18.509C113.807 18.3597 114.045 18.1473 114.269 17.872V14.652C114.073 14.414 113.858 14.246 113.625 14.148C113.396 14.05 113.149 14.001 112.883 14.001C112.622 14.001 112.384 14.05 112.169 14.148C111.959 14.246 111.779 14.3953 111.63 14.596C111.485 14.792 111.373 15.044 111.294 15.352C111.215 15.6553 111.175 16.0147 111.175 16.43C111.175 16.85 111.208 17.207 111.273 17.501C111.343 17.7903 111.441 18.0283 111.567 18.215C111.693 18.397 111.847 18.53 112.029 18.614C112.211 18.6933 112.414 18.733 112.638 18.733ZM119.453 12.818V17.382C119.453 17.8207 119.554 18.1613 119.754 18.404C119.96 18.642 120.265 18.761 120.671 18.761C120.97 18.761 121.25 18.6957 121.511 18.565C121.773 18.4297 122.02 18.2453 122.253 18.012V12.818H123.982V20H122.925C122.701 20 122.554 19.895 122.484 19.685L122.365 19.111C122.216 19.2603 122.062 19.398 121.903 19.524C121.745 19.6453 121.574 19.7503 121.392 19.839C121.215 19.923 121.021 19.9883 120.811 20.035C120.606 20.0863 120.384 20.112 120.146 20.112C119.754 20.112 119.407 20.0467 119.103 19.916C118.805 19.7807 118.553 19.5917 118.347 19.349C118.142 19.1063 117.986 18.8193 117.878 18.488C117.776 18.152 117.724 17.7833 117.724 17.382V12.818H119.453ZM130.875 14.337C130.824 14.4023 130.773 14.4537 130.721 14.491C130.675 14.5283 130.605 14.547 130.511 14.547C130.423 14.547 130.336 14.5213 130.252 14.47C130.168 14.414 130.068 14.3533 129.951 14.288C129.835 14.218 129.695 14.1573 129.531 14.106C129.373 14.05 129.174 14.022 128.936 14.022C128.633 14.022 128.367 14.078 128.138 14.19C127.91 14.2973 127.718 14.4537 127.564 14.659C127.415 14.8643 127.303 15.114 127.228 15.408C127.154 15.6973 127.116 16.0263 127.116 16.395C127.116 16.7777 127.156 17.1183 127.235 17.417C127.319 17.7157 127.438 17.9677 127.592 18.173C127.746 18.3737 127.933 18.5277 128.152 18.635C128.372 18.7377 128.619 18.789 128.894 18.789C129.17 18.789 129.391 18.7563 129.559 18.691C129.732 18.621 129.877 18.5463 129.993 18.467C130.11 18.383 130.21 18.3083 130.294 18.243C130.383 18.173 130.481 18.138 130.588 18.138C130.728 18.138 130.833 18.1917 130.903 18.299L131.4 18.929C131.209 19.153 131.001 19.342 130.777 19.496C130.553 19.6453 130.32 19.7667 130.077 19.86C129.839 19.9487 129.592 20.0117 129.335 20.049C129.079 20.0863 128.824 20.105 128.572 20.105C128.129 20.105 127.711 20.0233 127.319 19.86C126.927 19.692 126.584 19.4493 126.29 19.132C126.001 18.8147 125.77 18.4273 125.597 17.97C125.429 17.508 125.345 16.983 125.345 16.395C125.345 15.8677 125.42 15.38 125.569 14.932C125.723 14.4793 125.947 14.0897 126.241 13.763C126.535 13.4317 126.899 13.1727 127.333 12.986C127.767 12.7993 128.267 12.706 128.831 12.706C129.368 12.706 129.837 12.7923 130.238 12.965C130.644 13.1377 131.008 13.385 131.33 13.707L130.875 14.337ZM134.859 20.112C134.239 20.112 133.76 19.937 133.424 19.587C133.088 19.2323 132.92 18.7447 132.92 18.124V14.113H132.192C132.099 14.113 132.017 14.0827 131.947 14.022C131.882 13.9613 131.849 13.8703 131.849 13.749V13.063L133.004 12.874L133.368 10.914C133.387 10.8207 133.429 10.7483 133.494 10.697C133.564 10.6457 133.651 10.62 133.753 10.62H134.649V12.881H136.539V14.113H134.649V18.005C134.649 18.229 134.705 18.404 134.817 18.53C134.929 18.656 135.079 18.719 135.265 18.719C135.373 18.719 135.461 18.7073 135.531 18.684C135.606 18.656 135.669 18.628 135.72 18.6C135.776 18.572 135.825 18.5463 135.867 18.523C135.909 18.495 135.951 18.481 135.993 18.481C136.045 18.481 136.087 18.495 136.119 18.523C136.152 18.5463 136.187 18.5837 136.224 18.635L136.742 19.475C136.49 19.685 136.201 19.8437 135.874 19.951C135.548 20.0583 135.209 20.112 134.859 20.112ZM139.664 9.598V15.555H139.986C140.103 15.555 140.194 15.5387 140.259 15.506C140.325 15.4733 140.395 15.4127 140.469 15.324L142.254 13.119C142.334 13.0257 142.418 12.9533 142.506 12.902C142.595 12.846 142.712 12.818 142.856 12.818H144.438L142.205 15.485C142.126 15.583 142.044 15.674 141.96 15.758C141.876 15.8373 141.785 15.9073 141.687 15.968C141.785 16.038 141.872 16.1197 141.946 16.213C142.021 16.3063 142.096 16.4067 142.17 16.514L144.564 20H143.003C142.868 20 142.754 19.9767 142.66 19.93C142.567 19.8833 142.483 19.804 142.408 19.692L140.581 16.969C140.511 16.8617 140.441 16.7917 140.371 16.759C140.301 16.7263 140.196 16.71 140.056 16.71H139.664V20H137.935V9.598H139.664ZM147.998 20.112C147.377 20.112 146.899 19.937 146.563 19.587C146.227 19.2323 146.059 18.7447 146.059 18.124V14.113H145.331C145.238 14.113 145.156 14.0827 145.086 14.022C145.021 13.9613 144.988 13.8703 144.988 13.749V13.063L146.143 12.874L146.507 10.914C146.526 10.8207 146.568 10.7483 146.633 10.697C146.703 10.6457 146.789 10.62 146.892 10.62H147.788V12.881H149.678V14.113H147.788V18.005C147.788 18.229 147.844 18.404 147.956 18.53C148.068 18.656 148.217 18.719 148.404 18.719C148.511 18.719 148.6 18.7073 148.67 18.684C148.745 18.656 148.808 18.628 148.859 18.6C148.915 18.572 148.964 18.5463 149.006 18.523C149.048 18.495 149.09 18.481 149.132 18.481C149.183 18.481 149.225 18.495 149.258 18.523C149.291 18.5463 149.326 18.5837 149.363 18.635L149.881 19.475C149.629 19.685 149.34 19.8437 149.013 19.951C148.686 20.0583 148.348 20.112 147.998 20.112ZM154.119 12.706C154.656 12.706 155.141 12.7923 155.575 12.965C156.014 13.1377 156.387 13.3827 156.695 13.7C157.003 14.0173 157.241 14.4047 157.409 14.862C157.577 15.3193 157.661 15.8303 157.661 16.395C157.661 16.9643 157.577 17.4777 157.409 17.935C157.241 18.3923 157.003 18.782 156.695 19.104C156.387 19.426 156.014 19.6733 155.575 19.846C155.141 20.0187 154.656 20.105 154.119 20.105C153.582 20.105 153.095 20.0187 152.656 19.846C152.217 19.6733 151.842 19.426 151.529 19.104C151.221 18.782 150.981 18.3923 150.808 17.935C150.64 17.4777 150.556 16.9643 150.556 16.395C150.556 15.8303 150.64 15.3193 150.808 14.862C150.981 14.4047 151.221 14.0173 151.529 13.7C151.842 13.3827 152.217 13.1377 152.656 12.965C153.095 12.7923 153.582 12.706 154.119 12.706ZM154.119 18.775C154.716 18.775 155.157 18.5743 155.442 18.173C155.731 17.7717 155.876 17.1837 155.876 16.409C155.876 15.6343 155.731 15.044 155.442 14.638C155.157 14.232 154.716 14.029 154.119 14.029C153.512 14.029 153.064 14.2343 152.775 14.645C152.486 15.051 152.341 15.639 152.341 16.409C152.341 17.179 152.486 17.767 152.775 18.173C153.064 18.5743 153.512 18.775 154.119 18.775ZM162.076 12.706C162.613 12.706 163.098 12.7923 163.532 12.965C163.971 13.1377 164.344 13.3827 164.652 13.7C164.96 14.0173 165.198 14.4047 165.366 14.862C165.534 15.3193 165.618 15.8303 165.618 16.395C165.618 16.9643 165.534 17.4777 165.366 17.935C165.198 18.3923 164.96 18.782 164.652 19.104C164.344 19.426 163.971 19.6733 163.532 19.846C163.098 20.0187 162.613 20.105 162.076 20.105C161.539 20.105 161.052 20.0187 160.613 19.846C160.174 19.6733 159.799 19.426 159.486 19.104C159.178 18.782 158.938 18.3923 158.765 17.935C158.597 17.4777 158.513 16.9643 158.513 16.395C158.513 15.8303 158.597 15.3193 158.765 14.862C158.938 14.4047 159.178 14.0173 159.486 13.7C159.799 13.3827 160.174 13.1377 160.613 12.965C161.052 12.7923 161.539 12.706 162.076 12.706ZM162.076 18.775C162.673 18.775 163.114 18.5743 163.399 18.173C163.688 17.7717 163.833 17.1837 163.833 16.409C163.833 15.6343 163.688 15.044 163.399 14.638C163.114 14.232 162.673 14.029 162.076 14.029C161.469 14.029 161.021 14.2343 160.732 14.645C160.443 15.051 160.298 15.639 160.298 16.409C160.298 17.179 160.443 17.767 160.732 18.173C161.021 18.5743 161.469 18.775 162.076 18.775ZM168.808 9.598V20H167.079V9.598H168.808Z" fill="white"/>
<path d="M21.5 7.00754C20.7818 7.51415 19.9866 7.90162 19.145 8.15504C18.6933 7.63567 18.093 7.26756 17.4253 7.10049C16.7575 6.93341 16.0546 6.97544 15.4116 7.22088C14.7685 7.46633 14.2163 7.90334 13.8297 8.47283C13.4431 9.04232 13.2408 9.71679 13.25 10.405V11.155C11.932 11.1892 10.626 10.8969 9.44826 10.3041C8.27056 9.71135 7.25774 8.83652 6.5 7.75754C6.5 7.75754 3.5 14.5075 10.25 17.5075C8.7054 18.556 6.86537 19.0817 5 19.0075C11.75 22.7575 20 19.0075 20 10.3825C19.9993 10.1736 19.9792 9.96524 19.94 9.76004C20.7055 9.00516 21.2456 8.05208 21.5 7.00754Z" fill="white"/>
</svg>
